<svg preserveAspectRatio="none" overflow="visible" style="display: block;" width="48" height="48" viewBox="0 0 48 48" fill="none" xmlns="http://www.w3.org/2000/svg">
<g id="heroicons:user-solid">
<path id="Vector" fill-rule="evenodd" clip-rule="evenodd" d="M15 12C15 9.61305 15.9482 7.32387 17.636 5.63604C19.3239 3.94821 21.6131 3 24 3C26.387 3 28.6761 3.94821 30.364 5.63604C32.0518 7.32387 33 9.61305 33 12C33 14.3869 32.0518 16.6761 30.364 18.364C28.6761 20.0518 26.387 21 24 21C21.6131 21 19.3239 20.0518 17.636 18.364C15.9482 16.6761 15 14.3869 15 12ZM7.502 40.21C7.56944 35.8789 9.33728 31.7481 12.4239 28.7092C15.5106 25.6702 19.6684 23.9669 24 23.9669C28.3316 23.9669 32.4894 25.6702 35.5761 28.7092C38.6627 31.7481 40.4306 35.8789 40.498 40.21C40.5032 40.5016 40.4233 40.7883 40.2681 41.0352C40.1129 41.2821 39.889 41.4783 39.624 41.6C34.722 43.8464 29.3922 45.0062 24 45C18.428 45 13.134 43.784 8.376 41.6C8.11097 41.4783 7.88715 41.2821 7.73192 41.0352C7.5767 40.7883 7.4968 40.5016 7.502 40.21Z" fill="#EAF9FF"/>
</g>
</svg>
