<svg preserveAspectRatio="none" overflow="visible" style="display: block;" width="45" height="40" viewBox="0 0 45 40" fill="none" xmlns="http://www.w3.org/2000/svg">
<g id="solar:syringe-outline">
<path id="Vector" fill-rule="evenodd" clip-rule="evenodd" d="M31.05 6.50625C31.1806 6.37557 31.3357 6.27191 31.5063 6.20118C31.677 6.13045 31.8599 6.09405 32.0447 6.09405C32.2294 6.09405 32.4124 6.13045 32.583 6.20118C32.7537 6.27191 32.9088 6.37557 33.0394 6.50625L38.4956 11.9606C38.7517 12.226 38.8932 12.5813 38.8899 12.95C38.8865 13.3187 38.7384 13.6713 38.4776 13.9319C38.2167 14.1925 37.8639 14.3403 37.4952 14.3433C37.1265 14.3463 36.7713 14.2044 36.5062 13.9481L34.7737 12.2156L32.67 14.3175L34.29 15.9375C34.965 16.6125 35.5275 17.175 35.9512 17.6681C36.3937 18.1819 36.7631 18.7087 36.9919 19.3369C37.4137 20.4994 37.4137 21.7744 36.9919 22.9369C36.7631 23.565 36.3919 24.09 35.9512 24.6056C35.5256 25.0987 34.965 25.6612 34.29 26.3362L33.0412 27.5831L33.0394 27.5869L28.9519 31.6744L28.9481 31.6762L26.2219 34.4044L25.9669 34.65C25.8819 34.7498 25.7842 34.8381 25.6762 34.9125C23.7488 36.5949 21.2974 37.5565 18.7402 37.6335C16.183 37.7104 13.6782 36.8978 11.6531 35.3344L8.49375 38.4938C8.22717 38.7422 7.87458 38.8774 7.51027 38.871C7.14596 38.8645 6.79836 38.7169 6.54071 38.4593C6.28306 38.2016 6.13548 37.854 6.12905 37.4897C6.12262 37.1254 6.25785 36.7728 6.50625 36.5062L9.66563 33.3469C8.02309 31.2205 7.21149 28.5685 7.38267 25.8871C7.55384 23.2056 8.69605 20.6784 10.5956 18.7781L18.6638 10.71C19.3388 10.035 19.9012 9.4725 20.3944 9.04875C20.91 8.60813 21.435 8.23687 22.0631 8.00812C23.2256 7.58625 24.5006 7.58625 25.6631 8.00812C26.2912 8.23687 26.8181 8.60813 27.3319 9.04875C27.8269 9.47438 28.3875 10.035 29.0625 10.71L30.6825 12.33L32.7825 10.2281L31.0519 8.49375C30.7885 8.23008 30.6406 7.87266 30.6406 7.5C30.6406 7.12734 30.7885 6.76992 31.0519 6.50625M27.1144 12.7369C26.5942 12.2011 26.0564 11.6826 25.5019 11.1825C25.1081 10.845 24.8794 10.7156 24.7031 10.6519C24.1619 10.4537 23.5681 10.4537 23.0269 10.6519C22.8506 10.7156 22.6219 10.845 22.23 11.1825C21.6755 11.6826 21.1377 12.2011 20.6175 12.7369L20.4 12.9544L32.0475 24.6019L32.265 24.3844C32.9869 23.6625 33.4725 23.1769 33.8194 22.7719C34.1569 22.3781 34.2862 22.1512 34.35 21.975C34.5482 21.4338 34.5482 20.8399 34.35 20.2987C34.2862 20.1225 34.1569 19.8937 33.8194 19.5C33.3192 18.9454 32.8008 18.4077 32.265 17.8875L27.1144 12.7369ZM30.0581 26.5912L18.4087 14.9437L12.585 20.7675C11.1564 22.1958 10.3026 24.0993 10.1858 26.116C10.069 28.1328 10.6973 30.1221 11.9514 31.7058C13.2055 33.2895 14.9979 34.3571 16.9877 34.7057C18.9775 35.0542 21.026 34.6594 22.7437 33.5962L20.8069 31.6575C20.5585 31.3909 20.4232 31.0383 20.4297 30.674C20.4361 30.3097 20.5837 29.9621 20.8413 29.7045C21.099 29.4468 21.4466 29.2992 21.8109 29.2928C22.1752 29.2864 22.5278 29.4216 22.7944 29.67L24.8869 31.7606L25.965 30.6825L21.5494 26.2669C21.2856 26.0031 21.1374 25.6453 21.1374 25.2722C21.1374 24.8991 21.2856 24.5413 21.5494 24.2775C21.8132 24.0137 22.171 23.8655 22.5441 23.8655C22.9171 23.8655 23.2749 24.0137 23.5387 24.2775L27.9544 28.6931L30.0581 26.5912Z" fill="url(#paint0_linear_0_821)"/>
</g>
<defs>
<linearGradient id="paint0_linear_0_821" x1="23.5158" y1="38.8712" x2="25.0733" y2="0.645636" gradientUnits="userSpaceOnUse">
<stop stop-color="#0065F8"/>
<stop offset="1" stop-color="#00A2FF"/>
</linearGradient>
</defs>
</svg>
