<svg preserveAspectRatio="none" overflow="visible" style="display: block;" width="50" height="50" viewBox="0 0 50 50" fill="none" xmlns="http://www.w3.org/2000/svg">
<g id="fluent:web-asset-16-filled">
<path id="Vector" d="M14.0625 6.25C11.9905 6.25 10.0034 7.0731 8.53823 8.53823C7.0731 10.0034 6.25 11.9905 6.25 14.0625V35.9375C6.25 38.0095 7.0731 39.9966 8.53823 41.4618C10.0034 42.9269 11.9905 43.75 14.0625 43.75H35.9375C38.0095 43.75 39.9966 42.9269 41.4618 41.4618C42.9269 39.9966 43.75 38.0095 43.75 35.9375V14.0625C43.75 11.9905 42.9269 10.0034 41.4618 8.53823C39.9966 7.0731 38.0095 6.25 35.9375 6.25H14.0625ZM15.625 15.625H34.375C34.7894 15.625 35.1868 15.7896 35.4799 16.0826C35.7729 16.3757 35.9375 16.7731 35.9375 17.1875C35.9375 17.6019 35.7729 17.9993 35.4799 18.2924C35.1868 18.5854 34.7894 18.75 34.375 18.75H15.625C15.2106 18.75 14.8132 18.5854 14.5201 18.2924C14.2271 17.9993 14.0625 17.6019 14.0625 17.1875C14.0625 16.7731 14.2271 16.3757 14.5201 16.0826C14.8132 15.7896 15.2106 15.625 15.625 15.625Z" fill="#0061F8"/>
</g>
</svg>
